<?xml version="1.0" encoding="UTF-8" standalone="no"?>
<svg
        version="1.1"
        id="svg9"
        width="106"
        height="102"
        viewBox="0 0 106 102"
        sodipodi:docname="icon.svg"
        inkscape:version="1.1.1 (3bf5ae0d25, 2021-09-20)"
        xmlns:inkscape="http://www.inkscape.org/namespaces/inkscape"
        xmlns:sodipodi="http://sodipodi.sourceforge.net/DTD/sodipodi-0.dtd"
        xmlns="http://www.w3.org/2000/svg"
        xmlns:svg="http://www.w3.org/2000/svg">
    <defs
            id="defs13"/>
    <sodipodi:namedview
            id="namedview11"
            pagecolor="#505050"
            bordercolor="#ffffff"
            borderopacity="1"
            inkscape:pageshadow="0"
            inkscape:pageopacity="0"
            inkscape:pagecheckerboard="1"
            showgrid="false"
            inkscape:zoom="6.2169811"
            inkscape:cx="53"
            inkscape:cy="50.989378"
            inkscape:window-width="1440"
            inkscape:window-height="890"
            inkscape:window-x="-6"
            inkscape:window-y="-6"
            inkscape:window-maximized="1"
            inkscape:current-layer="g15"/>
    <g
            inkscape:groupmode="layer"
            inkscape:label="Image"
            id="g15">
        <path
                style="fill:#000000"
                d="m 21.485106,89.934775 c -0.374471,-0.37447 -0.680857,-3.54967 -0.680857,-7.056 0,-5.0281 -0.429711,-6.83639 -2.03369,-8.558059 C 16.110317,71.465281 12.13935,63.004133 10.864789,57.475475 6.3503598,37.893254 17.613579,17.012936 36.804249,9.3876066 44.705228,6.2481876 60.059848,6.2654136 67.668076,9.4222366 79.15857,14.189894 87.23939,22.242669 91.91724,33.587257 c 1.81207,4.394559 2.26789,7.409398 2.26789,15 0,10.430787 -2.04336,17.23217 -7.20978,23.998013 -2.12555,2.783569 -2.77322,4.928119 -3.1711,10.499999 l -0.5,7.00199 -30.569144,0.26419 c -16.813028,0.1453 -30.875528,-0.0422 -31.25,-0.41667 z M 63.37611,79.918245 C 89.21656,71.166908 93.92944,36.116405 71.304249,20.955329 57.060291,11.410495 35.55495,14.736779 25.395808,28.0561 c -4.828345,6.330286 -6.810087,13.173352 -6.380192,22.031153 0.555944,11.45496 5.302573,20.157923 14.288633,26.198262 7.702379,5.17746 20.828604,6.76313 30.071861,3.63273 z M 43.304249,74.420481 C 24.490246,67.457381 18.81021,44.73568 32.155239,29.821382 c 1.115102,-1.246229 4.079807,-3.49521 6.588234,-4.997737 4.011946,-2.403122 5.583641,-2.732139 13.060776,-2.734129 12.625618,-0.0034 19.757742,4.106258 25.160396,14.497737 3.088055,5.939571 3.259225,17.515356 0.347008,23.466838 -2.485518,5.079465 -7.982913,10.570119 -13.040566,13.024575 -4.654441,2.258779 -16.449648,3.013639 -20.966838,1.341815 z M 59.132206,48.543922 c 4.794795,-3.771586 4.463685,-11.00574 -0.694997,-15.184433 -2.776744,-2.24925 -9.489176,-2.24925 -12.26592,0 -7.832257,6.344372 -3.957848,17.227764 6.13296,17.227764 2.745989,0 5.141737,-0.71695 6.827957,-2.043331 z"
                id="path117"/>
    </g>
</svg>
